<svg width="31" height="24" viewBox="0 0 31 24" fill="none" xmlns="http://www.w3.org/2000/svg">
<path d="M10.3272 16.9893L26.2016 1.11491C26.6949 0.621636 27.3227 0.375 28.085 0.375C28.8474 0.375 29.4752 0.621636 29.9684 1.11491C30.4617 1.60818 30.7083 2.23598 30.7083 2.99832C30.7083 3.76065 30.4617 4.38845 29.9684 4.88173L12.2106 22.6396C11.6725 23.1777 11.0447 23.4467 10.3272 23.4467C9.60969 23.4467 8.98189 23.1777 8.44377 22.6396L1.44825 15.6441C0.954979 15.1508 0.708344 14.523 0.708344 13.7606C0.708344 12.9983 0.954979 12.3705 1.44825 11.8772C1.94153 11.384 2.56933 11.1373 3.33166 11.1373C4.09399 11.1373 4.7218 11.384 5.21507 11.8772L10.3272 16.9893Z" fill="black"/>
</svg>
