<svg width="40" height="40" viewBox="0 0 40 40" fill="none" xmlns="http://www.w3.org/2000/svg">
<path d="M11.6667 8.33333C11.6667 5.56667 13.9 3.33333 16.6667 3.33333H23.3333C26.1 3.33333 28.3333 5.56667 28.3333 8.33333C28.3333 9.25 27.5833 10 26.6667 10H13.3333C12.4167 10 11.6667 9.25 11.6667 8.33333ZM29.5833 25C29.5833 25.6833 29.0167 26.25 28.3333 26.25H26.6667V31.6667C26.6667 34.4333 24.4333 36.6667 21.6667 36.6667H18.3333C15.5667 36.6667 13.3333 34.4333 13.3333 31.6667V26.25H11.6667C10.9833 26.25 10.4167 25.6833 10.4167 25C10.4167 24.3167 10.9833 23.75 11.6667 23.75H28.3333C29.0167 23.75 29.5833 24.3167 29.5833 25Z" fill="#111111"/>
<path d="M30 11.6667H10C6.66667 11.6667 5 13.3333 5 16.6667V25C5 28.3333 6.66667 30 10 30H10.625C11.2 30 11.6667 29.5333 11.6667 28.9583C11.6667 28.3833 11.185 27.9333 10.6467 27.73C10.0915 27.5203 9.61293 27.147 9.27429 26.6596C8.93566 26.1722 8.75284 25.5935 8.75 25C8.75 23.4 10.0667 22.0833 11.6667 22.0833H28.3333C29.9333 22.0833 31.25 23.4 31.25 25C31.2472 25.5935 31.0643 26.1722 30.7257 26.6596C30.3871 27.147 29.9085 27.5203 29.3533 27.73C28.815 27.9333 28.3333 28.3833 28.3333 28.9583C28.3333 29.5333 28.8 30 29.375 30H30C33.3333 30 35 28.3333 35 25V16.6667C35 13.3333 33.3333 11.6667 30 11.6667ZM16.6667 19.5833H11.6667C10.9833 19.5833 10.4167 19.0167 10.4167 18.3333C10.4167 17.65 10.9833 17.0833 11.6667 17.0833H16.6667C17.35 17.0833 17.9167 17.65 17.9167 18.3333C17.9167 19.0167 17.35 19.5833 16.6667 19.5833Z" fill="#111111"/>
</svg>
