<svg width="35" height="35" viewBox="0 0 35 35" fill="none" xmlns="http://www.w3.org/2000/svg">
<path d="M30.625 8.72091C25.7688 8.23966 20.8833 7.99175 16.0125 7.99175C13.125 7.99175 10.2375 8.13758 7.35 8.42925L4.375 8.72091M12.3958 7.248L12.7167 5.33758C12.95 3.95216 13.125 2.91675 15.5896 2.91675H19.4104C21.875 2.91675 22.0646 4.0105 22.2833 5.35216L22.6042 7.248M27.4896 13.3292L26.5417 28.0147C26.3813 30.3042 26.25 32.0834 22.1813 32.0834H12.8188C8.75 32.0834 8.61875 30.3042 8.45833 28.0147L7.51042 13.3292M15.0646 24.0626H19.9208M13.8542 18.2292H21.1458" stroke="black" stroke-width="1.5" stroke-linecap="round" stroke-linejoin="round"/>
</svg>
